<?xml version="1.0" encoding="UTF-8"?>
<svg id="_Слой_1" data-name="Слой 1" xmlns="http://www.w3.org/2000/svg" viewBox="0 0 519.03 333.1">
  <defs>
    <style>
      .cls-1 {
        stroke-width: 0px;
      }
    </style>
  </defs>
  <path class="cls-1" d="M501.07,70.99c-1.81-7.95-5.26-14.72-10.36-20.31-5.1-5.59-12.72-9.87-22.86-12.83-10.14-2.96-24.65-4.44-43.5-4.44h-90.96l21.22,36.76v192.77l21.22,36.76h48.02v-107.24h18.59c15.13,0,27.39-2.08,36.76-6.25,9.38-4.17,15.81-10.14,19.33-17.93,3.51-7.79,5.26-20.18,5.26-37.17v-23.19c0-16.67-.9-28.98-2.71-36.92ZM445.89,122.72c0,9.87-1.23,16.37-3.7,19.49-2.47,3.13-6.88,4.69-13.24,4.69-1.43,0-3.13-.05-5.1-.16v-67.76c8.99,0,14.91,1.37,17.76,4.11,2.85,2.74,4.28,8.66,4.28,17.76v21.88Z"/>
  <polygon class="cls-1" points="105.21 33.41 105.21 128.64 84.49 128.64 84.49 33.41 15.24 33.41 15.24 299.69 84.49 299.69 84.49 187.85 105.21 187.85 105.21 299.69 174.46 299.69 174.46 106.92 132.02 33.41 105.21 33.41"/>
  <polygon class="cls-1" points="341.84 262.94 341.84 70.16 320.62 33.41 283.94 33.41 283.94 153.31 245.12 33.41 229.67 33.41 187.23 33.41 144.79 33.41 187.23 106.92 187.23 299.69 245.12 299.69 245.12 178.64 281.15 299.69 320.62 299.69 341.84 299.69 363.06 299.69 341.84 262.94"/>
</svg>